<?xml version="1.0" encoding="UTF-8"?>
<svg width="20px" height="20px" viewBox="0 0 20 20" version="1.1" xmlns="http://www.w3.org/2000/svg" xmlns:xlink="http://www.w3.org/1999/xlink">
    <title>D226C253-F4CA-4709-A316-B0018EE6FD34</title>
    <g id="Revizyonlar" stroke="none" stroke-width="1" fill="none" fill-rule="evenodd">
        <g id="002-Social-Media" transform="translate(-240.000000, -835.000000)">
            <g id="1775162_chat_behance_icon" transform="translate(240.000000, 835.000000)">
                <rect id="Rectangle" fill="#039BE5" x="0" y="0" width="20" height="20" rx="1.45635"></rect>
                <path d="M13.9546918,7.49268508 C10.6239599,7.49268508 10.6198125,11.2335457 10.6198125,11.2529227 C10.6198125,11.2529227 10.3921746,14.9972325 13.9546918,14.9972325 C13.9546918,14.9972325 16.9250043,15.1884791 16.9250043,12.3913269 L15.3997889,12.3913269 C15.3997889,12.3913269 15.4498913,13.444575 14.0047908,13.444575 C14.0047908,13.444575 12.4795753,13.559037 12.4795753,11.7428054 L16.9761288,11.7428054 C16.9761288,11.7428054 17.4709657,7.49268508 13.9546918,7.49268508 L13.9546918,7.49268508 Z M12.4623133,10.4326248 C12.4623133,10.4326248 12.6480887,8.92661016 13.9878158,8.92661016 C15.3325049,8.92661016 15.3103604,10.4326248 15.3103604,10.4326248 L12.4623133,10.4326248 L12.4623133,10.4326248 Z M8.65088461,9.46969478 C8.65088461,9.46969478 9.97373367,9.36105891 9.97373367,7.60714746 C9.97373367,5.85774442 8.89186303,5 7.51797349,5 L3,5 L3,14.7924454 L7.51797349,14.7924454 C7.51797349,14.7924454 10.2776141,14.8885892 10.2776141,11.9000366 C10.2776141,11.9000366 10.3960351,9.46968418 8.65088461,9.46968418 L8.65088461,9.46969478 Z M4.99100583,6.7392121 L7.51797699,6.7392121 C7.51797699,6.7392121 8.13115228,6.7392121 8.13115228,7.75863529 C8.13115228,8.77822818 7.7717689,8.92661016 7.36148154,8.92661016 L4.99100233,8.92661016 L4.99100233,6.7392121 L4.99100583,6.7392121 Z M7.39156403,13.0532308 L4.99100583,13.0532308 L4.99100583,10.4326129 L7.51797699,10.4326129 C7.51797699,10.4326129 8.43511318,10.4235858 8.43125618,11.781299 C8.43125618,12.9252045 7.75072691,13.0439409 7.39156403,13.0532308 L7.39156403,13.0532308 Z M12.0859725,5.57706612 L12.0859725,6.78206644 L15.6698313,6.78206644 L15.6698313,5.57706612 L12.0859725,5.57706612 Z" id="Shape" fill="#F1F2F2"></path>
            </g>
        </g>
    </g>
</svg>