<?xml version="1.0" encoding="UTF-8"?>
<svg width="20px" height="20px" viewBox="0 0 20 20" version="1.1" xmlns="http://www.w3.org/2000/svg" xmlns:xlink="http://www.w3.org/1999/xlink">
    <title>E7ADD5C2-B2D8-4323-B782-0211B479D69E</title>
    <g id="Revizyonlar" stroke="none" stroke-width="1" fill="none" fill-rule="evenodd">
        <g id="002-Social-Media" transform="translate(-270.000000, -835.000000)" fill-rule="nonzero">
            <g id="4745719_dribbble_web_design_network_connection_icon" transform="translate(270.000000, 835.000000)">
                <path d="M2.22222222,20 L17.7777778,20 C19.0050772,20 20,19.0050772 20,17.7777778 L20,2.22222222 C20,0.994922778 19.0050772,0 17.7777778,0 L2.22222222,0 C0.994922778,0 0,0.994922778 0,2.22222222 L0,17.7777778 C0,19.0050772 0.994922778,20 2.22222222,20 Z" id="Path" fill="#EC4989"></path>
                <path d="M13.3409184,14.9579046 C13.2800023,14.5973896 12.9614276,12.8425539 12.1769271,10.6885178 C14.1073087,10.3798577 15.7792086,10.9091069 15.9026871,10.9494385 C15.6367966,12.6153801 14.6827189,14.0516785 13.3409184,14.9579046 L13.3409184,14.9579046 L13.3409184,14.9579046 Z M10.0004116,15.9785408 C8.55324277,15.9785408 7.22625977,15.4641073 6.19150939,14.6080898 C6.27053565,14.6722911 6.32568941,14.7126227 6.32568941,14.7126227 C6.32568941,14.7126227 7.47157054,12.2137104 11.0170518,10.9782468 C11.0302228,10.9733083 11.0442171,10.9700159 11.0573881,10.9659004 C11.8986888,13.1512141 12.245252,14.9817744 12.3341565,15.5044388 C11.6171576,15.8089835 10.827718,15.9785408 10.0004116,15.9785408 L10.0004116,15.9785408 L10.0004116,15.9785408 Z M4.02157936,9.99958846 C4.02157936,9.93621025 4.0248721,9.87365513 4.0265185,9.81110001 C4.13271007,9.81356929 7.0863174,9.88023989 10.1642265,8.95919806 C10.3354501,9.2941972 10.499265,9.63578105 10.6490857,9.97571875 C10.5700594,9.99711918 10.4918563,10.0209889 10.4136532,10.0473279 C7.18756984,11.0893644 5.5510672,13.9915927 5.5510672,13.9915927 C5.5510672,13.9915927 5.55353677,13.994062 5.55353677,13.9948851 C4.60110542,12.9355635 4.02157936,11.5354812 4.02157936,9.99958846 L4.02157936,9.99958846 L4.02157936,9.99958846 Z M7.44934438,4.59433243 C7.52919387,4.70051149 8.63473864,6.19936505 9.66948902,8.03815626 C6.79902393,8.8011641 4.30722643,8.77070961 4.14999707,8.76824033 C4.53771975,6.91627962 5.78156054,5.38120995 7.44934438,4.59433243 L7.44934438,4.59433243 L7.44934438,4.59433243 Z M13.948433,5.51455111 C13.9336156,5.53677465 13.0824366,6.83314715 10.8252484,7.67846435 C9.80366907,5.8009877 8.68083731,4.309542 8.59110953,4.19101652 C9.04304111,4.08154506 9.51472923,4.02228233 10.0004116,4.02228233 C11.5134356,4.02228233 12.8955724,4.58692456 13.948433,5.51455111 L13.948433,5.51455111 L13.948433,5.51455111 Z M15.9767743,9.9403257 C15.8903393,9.92139455 13.8669371,9.48597801 11.813077,9.74442942 C11.7702711,9.6423658 11.7282884,9.5394791 11.6838361,9.4365924 C11.5595343,9.14357106 11.4253543,8.85384208 11.2862351,8.56905169 C13.6471453,7.605209 14.605339,6.2199424 14.6168636,6.2034805 C15.4548715,7.22164735 15.96278,8.52213535 15.9767743,9.9403257 L15.9767743,9.9403257 L15.9767743,9.9403257 Z M16.8584112,8.5912752 C16.7662139,8.14186607 16.6279179,7.69821858 16.4492856,7.27514844 C16.2747692,6.86030925 16.0566237,6.46028573 15.8039043,6.0866012 C15.5544776,5.71620907 15.2663609,5.36721736 14.9502558,5.05114939 C14.6333274,4.73425834 14.2851179,4.44699864 13.913859,4.19677819 C13.5401305,3.94326534 13.14006,3.72679171 12.725172,3.55064966 C12.3020521,3.37286142 11.8591756,3.2345817 11.4097136,3.14321831 C10.948727,3.04856253 10.4745693,3 10.0004116,3 C9.52543071,3 9.051273,3.04856253 8.59028636,3.14321831 C8.14082435,3.2345817 7.69794792,3.37286142 7.27482802,3.55064966 C6.85994003,3.72679171 6.45986947,3.94326534 6.08531781,4.19677819 C5.7148821,4.44699864 5.36667255,4.73425834 5.04974423,5.05114939 C4.7336391,5.36721736 4.44634563,5.71620907 4.19609572,6.0866012 C3.94337626,6.46028573 3.7252308,6.86030925 3.55071441,7.27514844 C3.37125888,7.69821858 3.23378609,8.14186607 3.14158877,8.5912752 C3.04774505,9.05138456 3,9.52548651 3,9.99958846 C3,10.4753366 3.04774505,10.9494385 3.14158877,11.410371 C3.23378609,11.8597801 3.37125888,12.3026045 3.55071441,12.7248516 C3.7252308,13.1396907 3.94337626,13.5413605 4.19609572,13.915045 C4.44634563,14.2854371 4.7336391,14.6327826 5.04974423,14.9504968 C5.36667255,15.2665648 5.7148821,15.5530014 6.08531781,15.8040449 C6.45986947,16.0567347 6.85994003,16.2740314 7.27482802,16.4493503 C7.69794792,16.6287848 8.14082435,16.7654183 8.59028636,16.8567817 C9.051273,16.9522606 9.52543071,17 10.0004116,17 C10.4745693,17 10.948727,16.9522606 11.4097136,16.8567817 C11.8591756,16.7654183 12.3020521,16.6287848 12.725172,16.4493503 C13.14006,16.2740314 13.5401305,16.0567347 13.913859,15.8040449 C14.2851179,15.5530014 14.6333274,15.2665648 14.9502558,14.9504968 C15.2663609,14.6327826 15.5544776,14.2854371 15.8039043,13.915045 C16.0566237,13.5413605 16.2747692,13.1396907 16.4492856,12.7248516 C16.6279179,12.3026045 16.7662139,11.8597801 16.8584112,11.410371 C16.952255,10.9494385 17,10.4753366 17,9.99958846 C17,9.52548651 16.952255,9.05138456 16.8584112,8.5912752 L16.8584112,8.5912752 L16.8584112,8.5912752 Z" id="Shape" fill="#FFFFFF"></path>
            </g>
        </g>
    </g>
</svg>