<?xml version="1.0" encoding="UTF-8"?>
<svg width="20px" height="20px" viewBox="0 0 20 20" version="1.1" xmlns="http://www.w3.org/2000/svg" xmlns:xlink="http://www.w3.org/1999/xlink">
    <title>9E2528A0-93EF-464D-948C-9E3C1947837F</title>
    <g id="Revizyonlar" stroke="none" stroke-width="1" fill="none" fill-rule="evenodd">
        <g id="002-Social-Media" transform="translate(-300.000000, -835.000000)" fill="#1777F2">
            <g id="5365678_fb_facebook_facebook-logo_icon" transform="translate(300.000000, 835.000000)">
                <path d="M17.5564844,0 C18.9051172,0 20,1.09492188 20,2.44351562 L20,17.5564844 C20,18.9050781 18.9050781,20 17.5564844,20 L13.3975781,20 L13.3975781,12.4642578 L15.9991406,12.4642578 L16.4941406,9.236875 L13.3975781,9.236875 L13.3975781,7.14246094 C13.3975781,6.25953125 13.8301172,5.39886719 15.2171094,5.39886719 L16.625,5.39886719 L16.625,2.65121094 C16.625,2.65121094 15.3472656,2.43316406 14.1257031,2.43316406 C11.5753906,2.43316406 9.90851563,3.97882813 9.90851563,6.77707031 L9.90851563,9.236875 L7.07363281,9.236875 L7.07363281,12.4642578 L9.90851563,12.4642578 L9.90851563,20 L2.44351562,20 C1.09492187,20 -6.21724894e-16,18.9050781 -6.21724894e-16,17.5564844 L-6.21724894e-16,2.44351563 C-6.21724894e-16,1.09492188 1.09488281,0 2.44351562,0 L17.5564844,0 Z" id="Path"></path>
            </g>
        </g>
    </g>
</svg>