<?xml version="1.0" encoding="UTF-8"?>
<svg width="20px" height="20px" viewBox="0 0 20 20" version="1.1" xmlns="http://www.w3.org/2000/svg" xmlns:xlink="http://www.w3.org/1999/xlink">
    <title>106BB355-18D4-40CA-9B09-4806D5326BEE</title>
    <g id="Revizyonlar" stroke="none" stroke-width="1" fill="none" fill-rule="evenodd">
        <g id="002-Social-Media" transform="translate(-180.000000, -835.000000)" fill="#000000">
            <path d="M192.364156,854.998331 C199.315832,854.79723 200,853.331944 200,845.01336 C200,835.834446 199.166666,835 189.999986,835 C180.833332,835 180,835.834446 180,845.01336 C180,853.35364 180.688332,854.80474 187.689983,855 C187.750816,854.924065 187.773317,854.828939 187.773317,854.732143 C187.773317,854.523532 187.764983,852.382345 187.760817,851.64553 C185.230005,852.178741 184.695837,850.461453 184.695837,850.461453 C184.28167,849.441761 183.685003,849.169731 183.685003,849.169731 C182.859168,848.622335 183.747503,848.633183 183.747503,848.633183 C184.660837,848.695767 185.141671,849.543563 185.141671,849.543563 C185.953339,850.892861 187.271674,850.503175 187.789983,850.27704 C187.872483,849.707114 188.107484,849.317428 188.367484,849.097135 C186.346673,848.874338 184.222503,848.116662 184.222503,844.732986 C184.222503,843.769202 184.577504,842.981486 185.159171,842.36398 C185.065004,842.140348 184.753337,841.242485 185.248338,840.027533 C185.248338,840.027533 186.012506,839.789716 187.750816,840.932072 C188.476651,840.735977 189.254985,840.638347 190.029153,840.635009 C190.801654,840.638347 191.579988,840.735977 192.307489,840.932072 C194.044992,839.789716 194.807493,840.027533 194.807493,840.027533 C195.30416,841.242485 194.99166,842.140348 194.897493,842.36398 C195.480827,842.981486 195.833328,843.769202 195.833328,844.732986 C195.833328,848.125006 193.705825,848.871834 191.678322,849.089625 C192.004989,849.362488 192.295823,849.90154 192.295823,850.725137 C192.295823,851.514522 192.290823,852.910549 192.287489,853.835949 C192.285823,854.294059 192.284989,854.636182 192.284989,854.732143 C192.284989,854.823098 192.309156,854.919059 192.364156,854.998331 L192.364156,854.998331 Z" id="Path"></path>
        </g>
    </g>
</svg>