<?xml version="1.0" encoding="UTF-8"?>
<svg width="20px" height="20px" viewBox="0 0 20 20" version="1.1" xmlns="http://www.w3.org/2000/svg" xmlns:xlink="http://www.w3.org/1999/xlink">
    <title>1A698A48-C98B-42C3-9E05-9948CE6F00FE</title>
    <g id="Revizyonlar" stroke="none" stroke-width="1" fill="none" fill-rule="evenodd">
        <g id="002-Social-Media" transform="translate(-150.000000, -835.000000)">
            <g id="5296501_linkedin_network_linkedin-logo_icon" transform="translate(150.000000, 835.000000)">
                <path d="M20,2.5 C20,1.12019531 18.8798047,0 17.5,0 L2.5,0 C1.12019531,0 0,1.12019531 0,2.5 L0,17.5 C0,18.8798047 1.12019531,20 2.5,20 L17.5,20 C18.8798047,20 20,18.8798047 20,17.5 L20,2.5 Z" id="background" fill="#2867B2"></path>
                <g id="Group-17" transform="translate(3.000000, 3.000000)" fill="#FFFFFF">
                    <rect id="rect11" x="0.176855884" y="4.55452479" width="3.00161501" height="9.44547521"></rect>
                    <path d="M1.69792849,0 C0.670988355,0 0,0.70631805 0,1.63207436 C0,2.5383877 0.650583253,3.26418534 1.65820329,3.26418534 L1.67759339,3.26418534 C2.72420362,3.26418534 3.37566188,2.5383877 3.37566188,1.63207436 C3.35623678,0.70631805 2.72427362,0 1.69792849,0 L1.69792849,0 Z" id="path13-0" fill-rule="nonzero"></path>
                    <path d="M10.5447827,4.33241358 C8.95262476,4.33241358 8.2394612,5.2484301 7.8401092,5.89184227 L7.8401092,4.55452479 L4.8392642,4.55452479 C4.8790594,5.44051639 4.8392642,13.9999634 4.8392642,13.9999634 L7.8400742,13.9999634 L7.8400742,8.72495024 C7.8400742,8.4426061 7.8594643,8.16033519 7.9390197,7.95854573 C8.15560078,7.39466299 8.64969825,6.81056836 9.47878239,6.81056836 C10.5642078,6.81056836 10.99905,7.67704375 10.99905,8.94625591 L10.99905,13.9999634 L14,13.9999634 L14,8.58339371 C14,5.68207057 12.5193176,4.33241358 10.5447827,4.33241358 L10.5447827,4.33241358 Z" id="path15" fill-rule="nonzero"></path>
                </g>
            </g>
        </g>
    </g>
</svg>