<?xml version="1.0" encoding="UTF-8"?>
<svg width="20px" height="20px" viewBox="0 0 20 20" version="1.1" xmlns="http://www.w3.org/2000/svg" xmlns:xlink="http://www.w3.org/1999/xlink">
    <title>6E83FB4A-5725-4E06-9AA9-E5A6DFBE0A4A</title>
    <g id="Revizyonlar" stroke="none" stroke-width="1" fill="none" fill-rule="evenodd">
        <g id="002-Social-Media" transform="translate(-360.000000, -835.000000)" fill="#0D1822" fill-rule="nonzero">
            <g id="noun-web-1038228" transform="translate(360.000000, 835.000000)">
                <path d="M20.0001363,10 C20.0001363,4.47368421 15.5263628,0 10,0 C4.47363722,0 0,4.47363722 0,10 C0,15.5263628 4.47363722,20 10,20 C11.9736842,20 13.8157425,19.4210526 15.3684211,18.4209586 L15.9473684,19.2631579 C16.2368515,19.7105028 16.7631109,19.9737312 17.2894267,19.9737312 C17.5789098,19.9737312 17.8946429,19.8947979 18.1316259,19.7369314 C18.5000376,19.5001316 18.7632519,19.1317152 18.868468,18.7106156 C18.9736513,18.2895207 18.868468,17.8421945 18.6316682,17.4737735 L17.8421476,16.28961 C18.3948731,16.1844267 18.8157848,15.789563 18.9736325,15.2370724 C19.0525658,14.9475893 19.0525658,14.6318562 18.9736325,14.3686513 C19.6317152,13.0526739 20.0001363,11.5790367 20.0001363,10 L20.0001363,10 Z M17.5789474,5.26315789 L14.6052162,5.26315789 C14.2368045,3.94736842 13.7105263,2.71052632 13.0526316,1.57904135 C14.9473684,2.26320489 16.5262218,3.57899436 17.5789474,5.26315789 Z M10.8947368,11.4210526 L11.4736842,13.6842105 L6.23684211,13.6842105 C6.00004229,12.6578947 5.89468045,11.6053571 5.84218045,10.5263628 L10.9211278,10.5263628 C10.8157613,10.8158459 10.8157613,11.1053102 10.8946945,11.4210526 L10.8947368,11.4210526 Z M5.84210526,9.4737782 C5.86835479,8.39478383 6.02640508,7.34224624 6.26320019,6.31593045 L13.7632002,6.31593045 C14,7.34224624 14.1053618,8.39478383 14.1578618,9.4737782 L5.84210526,9.4737782 Z M10,1.05272556 C10.5262688,1.05272556 11.0263158,1.10540883 11.5263158,1.18434211 C12.3947368,2.36850564 13.0526316,3.76324248 13.5,5.26333647 L6.55263158,5.26315291 C7.0262218,3.73683712 7.71057331,2.36832209 8.63148496,1.15793675 C9.07882989,1.07900348 9.52636278,1.05272556 9.99995301,1.05272556 L10,1.05272556 Z M7.07894737,1.55258459 C6.39478383,2.68406955 5.84210526,3.94736842 5.44741541,5.26315789 L2.42100564,5.26315789 C3.5,3.55272556 5.13153195,2.21047932 7.07894737,1.55258459 Z M1.84210526,6.31574248 L5.18425752,6.31574248 C4.97370771,7.34205827 4.81584586,8.39459586 4.78959586,9.47359023 L1.07902256,9.47359023 C1.13170583,8.34191729 1.42118421,7.2893797 1.84208647,6.31574248 L1.84210526,6.31574248 Z M1.07904135,10.5261748 L4.81588346,10.5261748 C4.84213299,11.6051692 4.97375,12.6577068 5.18429511,13.6840226 L1.84214286,13.6840226 C1.4212312,12.7103853 1.13175752,11.6578477 1.07904135,10.5261748 L1.07904135,10.5261748 Z M2.42109962,14.7367951 L5.42109962,14.7367951 C5.78951128,16.0525846 6.31578947,17.2894267 6.97368421,18.4209117 C5.05267857,17.7367481 3.47382519,16.4209586 2.42109962,14.7367951 L2.42109962,14.7367951 Z M11.368468,18.8420113 C10.9211231,18.9209445 10.4735902,18.9471945 10,18.9471945 C9.4737312,18.9471945 8.97368421,18.8945113 8.47368421,18.815578 C7.60526316,17.6314145 6.94736842,16.2366776 6.5,14.7365836 L11.7105263,14.7365836 L12.3684211,17.315484 C12.078938,17.8419408 11.7369361,18.3682096 11.368562,18.8419878 L11.368468,18.8420113 Z M17.5525846,15.2893139 L15.9735432,15.3682472 L16.4735902,16.1577679 L17.7367011,18.0787735 C17.9210009,18.3420066 17.8418844,18.7103994 17.5524013,18.8682942 C17.499718,18.8945437 17.473468,18.9209774 17.4207848,18.9209774 L17.3945352,18.9209774 C17.3682857,18.9209774 17.315602,18.947227 17.289352,18.947227 L17.2631024,18.947227 C17.2104192,18.947227 17.1841692,18.947227 17.1314859,18.9209774 L17.1052364,18.9209774 C17.0789868,18.9209774 17.0525531,18.8947279 17.0263031,18.8947279 C17.0263031,18.8947279 17.0000536,18.8947279 17.0000536,18.8684784 C16.973804,18.8422289 16.9473703,18.8422289 16.9211203,18.8157951 L16.8948708,18.7895456 C16.8686212,18.7632961 16.8421875,18.7368623 16.8159375,18.6843623 L16.2369901,17.8159413 L15.000148,15.973883 L14.3949319,17.5001988 C14.3686823,17.552882 14.3422486,17.605382 14.3159986,17.6318153 L14.2897491,17.6580648 C14.2634995,17.6843144 14.2370658,17.7107481 14.2108158,17.7107481 C14.1845663,17.7107481 14.1845663,17.7369977 14.1581325,17.7369977 C14.131883,17.7369977 14.1054492,17.7632472 14.0791992,17.7632472 L14.026516,17.7632472 L13.9738327,17.7632472 L13.9475832,17.7632472 L13.8686499,17.7632472 L13.8159666,17.7632472 C13.7897171,17.7632472 13.7632834,17.7369977 13.7370334,17.7105639 C13.7370334,17.7105639 13.7107838,17.7105639 13.7107838,17.6843144 C13.6845343,17.6580648 13.6318506,17.6316311 13.6056006,17.5791311 C13.579351,17.5264478 13.5529173,17.4739478 13.5266673,17.4212646 L13.0789558,15.7893567 L12.9737726,15.420945 L11.8947782,11.1578341 C11.8947782,11.1051508 11.8685287,11.0789008 11.8947782,11.0262176 L11.8947782,10.999968 C11.8947782,10.9737185 11.8947782,10.9472848 11.9210277,10.9210348 L11.9210277,10.8947852 C11.9472773,10.8685357 11.9472773,10.842102 11.973711,10.789602 L12.0526443,10.7106687 C12.0526443,10.7106687 12.0788938,10.7106687 12.0788938,10.6844192 C12.1051433,10.6581696 12.1315771,10.6581696 12.1578271,10.6581696 L12.1840766,10.6581696 C12.2103261,10.6581696 12.2630099,10.6319201 12.2892599,10.6319201 L12.3155094,10.6319201 L12.3944427,10.6319201 L12.4471259,10.6319201 C12.4998092,10.6581696 12.5260592,10.6581696 12.5787425,10.6846034 L14.0523797,11.737141 L15.0260169,12.4477143 L16.762906,13.6845564 L17.7892218,14.4213985 C18.1580047,14.6840771 17.9999549,15.2630338 17.5526053,15.2893026 L17.5525846,15.2893139 Z M18.2631579,13.4472556 L15.1842105,11.2367763 C15.2104601,10.9999765 15.2104601,10.7631861 15.2104601,10.526203 L18.9473022,10.526203 C18.8683689,11.5525188 18.6315691,12.5525658 18.2631386,13.4472556 L18.2631579,13.4472556 Z M15.2104793,9.47361842 C15.1842298,8.39462406 15.0526128,7.34208647 14.8420677,6.31577068 L18.1579511,6.31577068 C18.6052961,7.28940789 18.8685244,8.34213346 18.9474718,9.47361842 L15.2104793,9.47361842 Z" id="Shape"></path>
            </g>
        </g>
    </g>
</svg>