<?xml version="1.0" encoding="UTF-8"?>
<svg width="20px" height="20px" viewBox="0 0 20 20" version="1.1" xmlns="http://www.w3.org/2000/svg" xmlns:xlink="http://www.w3.org/1999/xlink">
    <title>01B7411F-9279-41E8-BC72-D5660F4467A2</title>
    <g id="Revizyonlar" stroke="none" stroke-width="1" fill="none" fill-rule="evenodd">
        <g id="002-Social-Media" transform="translate(-210.000000, -835.000000)" fill="#000000">
            <path d="M230,837.451055 C230,836.098281 228.901719,835 227.548945,835 L212.451055,835 C211.098281,835 210,836.098281 210,837.451055 L210,852.548945 C210,853.901719 211.098281,855 212.451055,855 L227.548945,855 C228.901719,855 230,853.901719 230,852.548945 L230,837.451055 Z M221.076016,845.000078 C221.076016,847.634297 218.955039,849.769727 216.338867,849.769727 C213.722695,849.769727 211.601562,847.634297 211.601562,845.000078 C211.601562,842.365859 213.7225,840.230273 216.338867,840.230273 C218.955195,840.230273 221.076016,842.365859 221.076016,845.000078 Z M226.272812,845.000078 C226.272812,847.479609 225.212344,849.490508 223.90418,849.490508 C222.595977,849.490508 221.535508,847.479609 221.535508,845.000078 C221.535508,842.520547 222.59582,840.509688 223.903984,840.509688 C225.212187,840.509688 226.272656,842.519883 226.272656,845.000078 L226.272812,845.000078 Z M228.398438,845.000078 C228.398438,847.221133 228.025508,849.022773 227.565391,849.022773 C227.105234,849.022773 226.732461,847.221641 226.732461,845.000078 C226.732461,842.778516 227.105391,840.977383 227.565391,840.977383 C228.025352,840.977383 228.398438,842.778359 228.398438,845.000078 Z" id="Shape"></path>
        </g>
    </g>
</svg>