<?xml version="1.0" encoding="UTF-8"?>
<svg width="20px" height="20px" viewBox="0 0 20 20" version="1.1" xmlns="http://www.w3.org/2000/svg" xmlns:xlink="http://www.w3.org/1999/xlink">
    <title>8A33371C-CC2E-4CBE-BFFD-ED1F981AA1E2</title>
    <g id="Revizyonlar" stroke="none" stroke-width="1" fill="none" fill-rule="evenodd">
        <g id="002-Social-Media" transform="translate(-330.000000, -835.000000)" fill-rule="nonzero">
            <g id="5296516_tweet_twitter_twitter-logo_icon" transform="translate(330.000000, 835.000000)">
                <path d="M17.5,20 L2.5,20 C1.12,20 0,18.88 0,17.5 L0,2.5 C0,1.12 1.12,0 2.5,0 L17.5,0 C18.88,0 20,1.12 20,2.5 L20,17.5 C20,18.88 18.88,20 17.5,20 Z" id="Dark_Blue" fill="#1DA1F2"></path>
                <path d="M7.3977591,16 C12.6806723,16 15.5714286,11.3818898 15.5714286,7.38385827 C15.5714286,7.25393701 15.5714286,7.12401575 15.5658263,6.99409449 C16.1260504,6.56889764 16.6134454,6.03149606 17,5.42322835 C16.4845938,5.66535433 15.929972,5.82480315 15.3473389,5.9015748 C15.9411765,5.52952756 16.394958,4.93307087 16.6134454,4.22440945 C16.0588235,4.57283465 15.442577,4.82086614 14.7871148,4.95669291 C14.2605042,4.36614173 13.5154062,4 12.6918768,4 C11.1064426,4 9.81792717,5.35826772 9.81792717,7.02952756 C9.81792717,7.26574803 9.84593838,7.49606299 9.8907563,7.72047244 C7.50420168,7.59645669 5.38655462,6.38582677 3.96918768,4.55511811 C3.72268908,5.00393701 3.58263305,5.52362205 3.58263305,6.07874016 C3.58263305,7.12992126 4.09243697,8.05708661 4.85994398,8.6003937 C4.38935574,8.58267717 3.94677871,8.44685039 3.56022409,8.22244094 L3.56022409,8.26377953 C3.56022409,9.72834646 4.55182073,10.9566929 5.8627451,11.234252 C5.62184874,11.3051181 5.3697479,11.3405512 5.10644258,11.3405512 C4.92156863,11.3405512 4.74229692,11.3228346 4.56862745,11.2874016 C4.93277311,12.492126 5.99719888,13.3661417 7.25210084,13.3897638 C6.26610644,14.2047244 5.0280112,14.6889764 3.68347339,14.6889764 C3.45378151,14.6889764 3.22408964,14.6771654 3,14.6476378 C4.26610644,15.4980315 5.77871148,16 7.3977591,16" id="Logo__x2014__FIXED" fill="#FFFFFF"></path>
            </g>
        </g>
    </g>
</svg>